<svg width="80" height="80" xmlns="http://www.w3.org/2000/svg"><defs><linearGradient x1="0%" y1="46.41%" x2="100%" y2="46.41%" id="a"><stop stop-color="#FFC233" offset="0%"/><stop stop-color="#FFB300" offset="100%"/></linearGradient></defs><path d="M19.024 68.34c-.464.917-.612 2.432-.513 4.112C6.968 67.088 0 55.547 0 42.174 0 23.684 12.74 8.696 33.636 8.696c20.897 0 33.637 14.988 33.637 33.478 0 13.53-7.132 25.185-18.919 30.464.114-1.651-.004-3.16-.42-4.124 8.934-4.873 14.97-14.002 14.97-23.615 0-4.025-.623-6.995-1.954-9.186-2.475-6.113-8.924-10.496-16.492-10.496-4.15 0-8.12 1.934-11.258 4.304-3.14-2.403-7.145-4.304-11.259-4.304-9.67 0-17.573 7.21-17.573 16.032 0 .524.021 1.046.062 1.566a33.419 33.419 0 0 0-.062 2.084c0 9.5 5.896 18.527 14.656 23.441zm.197-25.312c0-1.192 1.124-2.158 2.514-2.158h.214c1.388 0 2.514.967 2.514 2.158v9.596c0 1.192-1.125 2.159-2.514 2.159h-.214c-1.389 0-2.514-.968-2.514-2.16v-9.595zm23.589 0c0-1.192 1.124-2.158 2.514-2.158h.214c1.388 0 2.514.967 2.514 2.158v9.596c0 1.192-1.124 2.159-2.514 2.159h-.214c-1.388 0-2.514-.968-2.514-2.16v-9.595zm15.726-29.985c-2.912-2.046-4.368-4.33-4.368-6.855C54.168 2.402 56.123 0 58.536 0c2.413 0 4.368 2.402 4.368 6.188 0 2.524-1.456 4.81-4.368 6.855zm-48.052 0c-2.912-2.046-4.368-4.33-4.368-6.855C6.116 2.402 8.07 0 10.484 0c2.413 0 4.368 2.402 4.368 6.188 0 2.524-1.456 4.81-4.368 6.855zm24.477 59.222s6.736-3.57 9.796-3.57c3.06 0 1.14 11.305-1.92 11.305-3.06 0-8.183-5.648-8.183-5.648-.701-.712-.557-1.652.307-2.087zm-2.65 0c.865.435 1.01 1.375.308 2.087 0 0-5.123 5.648-8.183 5.648-3.06 0-4.98-11.304-1.92-11.304 3.06 0 9.796 3.569 9.796 3.569z" transform="translate(6)" fill="url(#a)" fill-rule="evenodd"/></svg>